<?xml version="1.0" encoding="UTF-8" standalone="no"?>
<svg
   xmlns:dc="http://purl.org/dc/elements/1.1/"
   xmlns:cc="http://creativecommons.org/ns#"
   xmlns:rdf="http://www.w3.org/1999/02/22-rdf-syntax-ns#"
   xmlns:svg="http://www.w3.org/2000/svg"
   xmlns="http://www.w3.org/2000/svg"
   xmlns:xlink="http://www.w3.org/1999/xlink"
   xmlns:sodipodi="http://sodipodi.sourceforge.net/DTD/sodipodi-0.dtd"
   xmlns:inkscape="http://www.inkscape.org/namespaces/inkscape"
   sodipodi:docname="favicon.svg"
   inkscape:version="1.0 (4035a4fb49, 2020-05-01)"
   width="48.0px"
   height="48.0px"
   viewBox="0 0 48.0 48.0"
   version="1.1"
   id="SVGRoot">
  <defs
     id="defs1097">
    <linearGradient
       id="linearGradient1680"
       inkscape:collect="always">
      <stop
         id="stop1676"
         offset="0"
         style="stop-color:#baff90;stop-opacity:1" />
      <stop
         id="stop1678"
         offset="1"
         style="stop-color:#55d400;stop-opacity:1" />
    </linearGradient>
    <linearGradient
       gradientUnits="userSpaceOnUse"
       y2="50"
       x2="50"
       y1="0"
       x1="0"
       id="linearGradient1682"
       xlink:href="#linearGradient1680"
       inkscape:collect="always" />
  </defs>
  <sodipodi:namedview
     inkscape:snap-global="false"
     inkscape:guide-bbox="true"
     showguides="true"
     inkscape:window-maximized="0"
     inkscape:window-y="437"
     inkscape:window-x="2052"
     inkscape:window-height="1378"
     inkscape:window-width="1530"
     showgrid="true"
     inkscape:document-rotation="0"
     inkscape:current-layer="layer1"
     inkscape:document-units="px"
     inkscape:cy="40.279863"
     inkscape:cx="40.46978"
     inkscape:zoom="44.8"
     inkscape:pageshadow="2"
     inkscape:pageopacity="0.0"
     borderopacity="1.0"
     bordercolor="#666666"
     pagecolor="#ffffff"
     id="base">
    <inkscape:grid
       type="xygrid"
       id="grid1667" />
  </sodipodi:namedview>
  <metadata
     id="metadata1100">
    <rdf:RDF>
      <cc:Work
         rdf:about="">
        <dc:format>image/svg+xml</dc:format>
        <dc:type
           rdf:resource="http://purl.org/dc/dcmitype/StillImage" />
        <dc:title></dc:title>
      </cc:Work>
    </rdf:RDF>
  </metadata>
  <g
     id="layer1"
     inkscape:groupmode="layer"
     inkscape:label="Layer 1">
    <rect
       y="0"
       x="0"
       height="50"
       width="50"
       id="rect1674"
       style="stroke-width:1.88976;fill:url(#linearGradient1682);fill-opacity:1" />
    <rect
       y="6"
       x="5"
       height="24"
       width="20"
       id="rect1708"
       style="opacity:1;fill:#ffffff;fill-opacity:1;stroke-width:1.46381" />
    <path
       id="path1710"
       d="M 23,10 H 7"
       style="fill:none;stroke:#000000;stroke-width:1px;stroke-linecap:butt;stroke-linejoin:miter;stroke-opacity:1" />
    <path
       style="fill:none;stroke:#000000;stroke-width:1px;stroke-linecap:butt;stroke-linejoin:miter;stroke-opacity:1"
       d="M 23,12 H 7"
       id="path1727" />
    <path
       id="path1729"
       d="M 23,18 H 7"
       style="fill:none;stroke:#000000;stroke-width:1px;stroke-linecap:butt;stroke-linejoin:miter;stroke-opacity:1" />
    <path
       style="fill:none;stroke:#000000;stroke-width:1px;stroke-linecap:butt;stroke-linejoin:miter;stroke-opacity:1"
       d="M 23,20 H 7"
       id="path1731" />
    <path
       id="path1733"
       d="M 23,22 H 7"
       style="fill:none;stroke:#000000;stroke-width:1px;stroke-linecap:butt;stroke-linejoin:miter;stroke-opacity:1" />
    <path
       id="path1735"
       d="M 23,14 H 7"
       style="fill:none;stroke:#000000;stroke-width:1px;stroke-linecap:butt;stroke-linejoin:miter;stroke-opacity:1" />
    <path
       style="fill:none;stroke:#000000;stroke-width:1px;stroke-linecap:butt;stroke-linejoin:miter;stroke-opacity:1"
       d="M 23,16 H 7"
       id="path1737" />
    <path
       style="fill:none;stroke:#000000;stroke-width:0.707107px;stroke-linecap:butt;stroke-linejoin:miter;stroke-opacity:1"
       d="M 23,28 H 15"
       id="path1748" />
    <path
       id="path1750"
       d="M 24,29 21,26"
       style="fill:#ff0000;stroke:#ff0000;stroke-width:0.5;stroke-linecap:butt;stroke-linejoin:miter;stroke-opacity:1;stroke-miterlimit:4;stroke-dasharray:none" />
    <path
       id="path1752"
       d="m 21,29 3,-3"
       style="fill:#ff0000;stroke:#ff0000;stroke-width:0.5;stroke-linecap:butt;stroke-linejoin:miter;stroke-opacity:1;stroke-miterlimit:4;stroke-dasharray:none" />
    <circle
       r="8.5749722"
       cy="40"
       cx="40"
       id="path1754"
       style="opacity:1;fill:#006fff;fill-opacity:1;stroke:none;stroke-width:0.428749;stroke-miterlimit:4;stroke-dasharray:none;stroke-opacity:1" />
    <path
       id="path1764"
       d="m 34,36 h 2 l -2,5 3,2 -1,3 3,2 1,-5 h -2 l -2,-2 2,-1 v 0 0 0 l 2,-4 -1,-1 -1,1 v -2 -1 z"
       style="fill:#008000;stroke:#000000;stroke-width:0.1;stroke-linecap:butt;stroke-linejoin:miter;stroke-opacity:1;stroke-miterlimit:4;stroke-dasharray:none" />
    <path
       d="M 45.271484 34.849609 L 44.009766 36.492188 L 43.078125 35.818359 L 41.810547 37.408203 L 42.03125 38.177734 L 40.818359 38.5625 L 41.583984 39.916016 L 42.662109 39.611328 L 43.115234 38.570312 L 44.658203 37.734375 L 45.869141 37.734375 L 45.992188 38.929688 L 45.269531 38.972656 L 45.365234 39.507812 L 46.169922 39.287109 L 46.236328 39.052734 L 46.417969 39.052734 L 46.509766 39.294922 L 46.34375 37.693359 L 47.328125 37.826172 L 46.917969 38.517578 L 47.976562 38.40625 L 47.787109 39.251953 L 47.701172 40.511719 L 45.732422 40.837891 L 44.160156 40.841797 L 43.869141 40.15625 L 41.865234 40.324219 L 41.708984 43.328125 L 43.822266 43.025391 C 43.822266 43.025391 42.840583 47.225447 42.994141 47.203125 C 43.147699 47.180805 44.185547 47.111328 44.185547 47.111328 L 47.664062 42.748047 L 47.46875 41.335938 L 48.337891 41.996094 L 48.339844 41.994141 A 8.5749722 8.5749722 0 0 0 48.574219 40 A 8.5749722 8.5749722 0 0 0 47.439453 35.740234 L 45.271484 34.849609 z "
       style="fill:#008000;stroke:#000000;stroke-width:0.1;stroke-linecap:butt;stroke-linejoin:miter;stroke-opacity:1;stroke-miterlimit:4;stroke-dasharray:none;fill-opacity:1"
       id="path1766" />
  </g>
</svg>
